name rise30.9205peak61.366fall85.3838.mot
datacolumns 19
datarows 12
range 8.37163600000000 8.38996700000000
endheader
time	ground_force1_vx	ground_force1_vy	ground_force1_vz	ground_force1_px	ground_force1_py	ground_force1_pz	ground_force2_vx	ground_force2_vy	ground_force2_vz	ground_force2_px	ground_force2_py	ground_force2_pz	ground_torque1_x	ground_torque1_y	ground_torque1_z	ground_torque2_x	ground_torque2_y	ground_torque2_z	
8.37163600000000	-53.70144300000000	855.93046500000003	56.95230600000000	0.11573400000000	0.00000000000000	0.10916300000000	0.00000000000000	0.00000000000000	0.00000000000000	0.00000000000000	0.00000000000000	0.00000000000000	0.00000000000000	23.88410100000000	0.00000000000000	0.00000000000000	0.00000000000000	0.00000000000000	
8.37332100000000	-53.97226200000000	854.37899800000002	56.87659000000000	0.11495900000000	0.00000000000000	0.10918700000000	0.00000000000000	0.00000000000000	0.00000000000000	0.00000000000000	0.00000000000000	0.00000000000000	0.00000000000000	23.77352100000000	0.00000000000000	0.00000000000000	0.00000000000000	0.00000000000000	
8.37496500000000	-54.25306400000000	852.70119000000000	56.78400700000000	0.11419300000000	0.00000000000000	0.10921100000000	0.00000000000000	0.00000000000000	0.00000000000000	0.00000000000000	0.00000000000000	0.00000000000000	0.00000000000000	23.66329900000000	0.00000000000000	0.00000000000000	0.00000000000000	0.00000000000000	
8.37663700000000	-54.54469700000000	850.89726399999995	56.67436500000000	0.11343600000000	0.00000000000000	0.10923500000000	-1.84388600000000	3.62701500000000	1.38420500000000	0.00000000000000	0.00000000000000	0.00000000000000	0.00000000000000	23.55372300000000	0.00000000000000	0.00000000000000	0.49200200000000	0.00000000000000	
8.37830000000000	-54.84796800000000	848.96745899999996	56.54749400000000	0.11268700000000	0.00000000000000	0.10925800000000	-3.00127900000000	6.85165000000000	2.32725400000000	0.00000000000000	0.00000000000000	0.00000000000000	0.00000000000000	23.44506800000000	0.00000000000000	0.00000000000000	0.83336800000000	0.00000000000000	
8.37997300000000	-55.16364500000000	846.91201999999998	56.40324000000000	0.11194700000000	0.00000000000000	0.10928200000000	-4.32152300000000	10.72918400000000	3.41778300000000	0.00000000000000	0.00000000000000	0.00000000000000	0.00000000000000	23.33759900000000	0.00000000000000	0.00000000000000	1.22936100000000	0.00000000000000	
8.38163800000000	-55.49244700000000	844.73118899999997	56.24147100000000	0.11121600000000	0.00000000000000	0.10930400000000	-5.76802600000000	15.21332400000000	4.62987200000000	0.00000000000000	0.00000000000000	0.00000000000000	0.00000000000000	23.23156900000000	0.00000000000000	0.00000000000000	1.67095700000000	0.00000000000000	
8.38330100000000	-55.83504200000000	842.42519300000004	56.06206900000000	0.11049300000000	0.00000000000000	0.10932600000000	-7.29418600000000	20.22842700000000	5.92922100000000	0.00000000000000	0.00000000000000	0.00000000000000	0.00000000000000	23.12721500000000	0.00000000000000	0.00000000000000	2.14609800000000	0.00000000000000	
8.38497100000000	-56.19204100000000	839.99423999999999	55.86493600000000	0.10977800000000	0.00000000000000	0.10934800000000	-8.84646800000000	25.67513500000000	7.27542800000000	0.35947100000000	0.00000000000000	-0.05806600000000	0.00000000000000	23.02475900000000	0.00000000000000	0.00000000000000	4.74211700000000	0.00000000000000	
8.38663900000000	-56.56399400000000	837.43850699999996	55.64999200000000	0.10907200000000	0.00000000000000	0.10936900000000	-10.36834500000000	31.43863400000000	8.62498300000000	0.36480700000000	0.00000000000000	-0.05897500000000	0.00000000000000	22.92440600000000	0.00000000000000	0.00000000000000	5.67366800000000	0.00000000000000	
8.38830500000000	-56.95138400000000	834.75813200000005	55.41717200000000	0.10837400000000	0.00000000000000	0.10938800000000	-11.80459100000000	37.39842700000000	9.93460700000000	0.36970400000000	0.00000000000000	-0.05981900000000	0.00000000000000	22.82634500000000	0.00000000000000	0.00000000000000	6.59197200000000	0.00000000000000	
8.38996700000000	-57.35462500000000	831.95320900000002	55.16642700000000	0.10768400000000	0.00000000000000	0.10940700000000	-13.10534800000000	43.43824700000000	11.16446100000000	0.37420900000000	0.00000000000000	-0.06060800000000	0.00000000000000	22.73074500000000	0.00000000000000	0.00000000000000	7.46950800000000	0.00000000000000	
